# xmcd
#
# Track frame offsets:
#	150
#	13875
#	28727
#	42702
#	52130
#	64462
#	76792
#	85847
#	98142
#	109732
#	121712
#	134140
#
# Disc length: 1968 seconds
#
# Revision: 0
# Processed by: cddbd v1.5.1PL0 Copyright (c) Steve Scherf et al.
# Submitted via: dBpowerAMP V4.0
#
DISCID=a907ae0c
DTITLE=Orquestra América Romantica - Orquestra América Romantica
DYEAR=1900
DGENRE=Undefined
TTITLE0=Granada - Agustin Lara
TTITLE1=2. Moon River - H Mancine
TTITLE2=êtot Fñawer
TTITLE3=Lisboa Antigua
TTITLE4=Tema de Barcarole
TTITLE5=Sukyaky
TTITLE6=Afrikan Beat
TTITLE7=Mundo Cane
TTITLE8=Al di la
TTITLE9=Cuando calientael sol
TTITLE10=Nochesde Moscu
TTITLE11=Nava Nagila 
EXTD=
EXTT0=
EXTT1=
EXTT2=
EXTT3=
EXTT4=
EXTT5=
EXTT6=
EXTT7=
EXTT8=
EXTT9=
EXTT10=
EXTT11=
PLAYORDER=
